<svg xmlns="http://www.w3.org/2000/svg" viewBox="0 0 635 236" fill="none">
<path fill="#00F7EB" fill-rule="evenodd" d="M624.44 64.11C625.12 64.11 625.68 63.56 625.68 62.87C625.68 62.18 625.12 61.63 624.44 61.63C623.75 61.63 623.19 62.18 623.19 62.87C623.19 63.56 623.75 64.11 624.44 64.11ZM624.44 71.58C625.12 71.58 625.68 71.02 625.68 70.34C625.68 69.65 625.12 69.09 624.44 69.09C623.75 69.09 623.19 69.65 623.19 70.34C623.19 71.02 623.75 71.58 624.44 71.58ZM624.44 79.04C625.12 79.04 625.68 78.48 625.68 77.80C625.68 77.11 625.12 76.56 624.44 76.56C623.75 76.56 623.19 77.11 623.19 77.80C623.19 78.48 623.75 79.04 624.44 79.04ZM616.97 71.58C617.65 71.58 618.21 71.02 618.21 70.34C618.21 69.65 617.65 69.09 616.97 69.09C616.28 69.09 615.72 69.65 615.72 70.34C615.72 71.02 616.28 71.58 616.97 71.58ZM616.97 79.04C617.65 79.04 618.21 78.48 618.21 77.80C618.21 77.11 617.65 76.56 616.97 76.56C616.28 76.56 615.72 77.11 615.72 77.80C615.72 78.48 616.28 79.04 616.97 79.04ZM609.49 79.04C610.18 79.04 610.74 78.48 610.74 77.80C610.74 77.11 610.18 76.56 609.49 76.56C608.81 76.56 608.25 77.11 608.25 77.80C608.25 78.48 608.81 79.04 609.49 79.04ZM594.54 49.18C595.23 49.18 595.79 48.62 595.79 47.94C595.79 47.25 595.23 46.70 594.54 46.70C593.86 46.70 593.30 47.25 593.30 47.94C593.30 48.62 593.86 49.18 594.54 49.18ZM594.54 56.64C595.23 56.64 595.79 56.09 595.79 55.40C595.79 54.72 595.23 54.16 594.54 54.16C593.86 54.16 593.30 54.72 593.30 55.40C593.30 56.09 593.86 56.64 594.54 56.64ZM594.54 64.11C595.23 64.11 595.79 63.56 595.79 62.87C595.79 62.18 595.23 61.63 594.54 61.63C593.86 61.63 593.30 62.18 593.30 62.87C593.30 63.56 593.86 64.11 594.54 64.11ZM594.54 71.58C595.23 71.58 595.79 71.02 595.79 70.34C595.79 69.65 595.23 69.09 594.54 69.09C593.86 69.09 593.30 69.65 593.30 70.34C593.30 71.02 593.86 71.58 594.54 71.58ZM594.54 79.04C595.23 79.04 595.79 78.48 595.79 77.80C595.79 77.11 595.23 76.56 594.54 76.56C593.86 76.56 593.30 77.11 593.30 77.80C593.30 78.48 593.86 79.04 594.54 79.04ZM587.07 41.72C587.76 41.72 588.32 41.16 588.32 40.48C588.32 39.79 587.76 39.23 587.07 39.23C586.39 39.23 585.83 39.79 585.83 40.48C585.83 41.16 586.39 41.72 587.07 41.72ZM587.07 49.18C587.76 49.18 588.32 48.62 588.32 47.94C588.32 47.25 587.76 46.70 587.07 46.70C586.39 46.70 585.83 47.25 585.83 47.94C585.83 48.62 586.39 49.18 587.07 49.18ZM587.07 56.64C587.76 56.64 588.32 56.09 588.32 55.40C588.32 54.72 587.76 54.16 587.07 54.16C586.39 54.16 585.83 54.72 585.83 55.40C585.83 56.09 586.39 56.64 587.07 56.64ZM587.07 64.11C587.76 64.11 588.32 63.56 588.32 62.87C588.32 62.18 587.76 61.63 587.07 61.63C586.39 61.63 585.83 62.18 585.83 62.87C585.83 63.56 586.39 64.11 587.07 64.11ZM587.07 71.58C587.76 71.58 588.32 71.02 588.32 70.34C588.32 69.65 587.76 69.09 587.07 69.09C586.39 69.09 585.83 69.65 585.83 70.34C585.83 71.02 586.39 71.58 587.07 71.58ZM587.07 79.04C587.76 79.04 588.32 78.48 588.32 77.80C588.32 77.11 587.76 76.56 587.07 76.56C586.39 76.56 585.83 77.11 585.83 77.80C585.83 78.48 586.39 79.04 587.07 79.04ZM579.60 41.72C580.29 41.72 580.84 41.16 580.84 40.48C580.84 39.79 580.29 39.23 579.60 39.23C578.91 39.23 578.36 39.79 578.36 40.48C578.36 41.16 578.91 41.72 579.60 41.72ZM579.60 49.18C580.29 49.18 580.84 48.62 580.84 47.94C580.84 47.25 580.29 46.70 579.60 46.70C578.91 46.70 578.36 47.25 578.36 47.94C578.36 48.62 578.91 49.18 579.60 49.18ZM579.60 56.64C580.29 56.64 580.84 56.09 580.84 55.40C580.84 54.72 580.29 54.16 579.60 54.16C578.91 54.16 578.36 54.72 578.36 55.40C578.36 56.09 578.91 56.64 579.60 56.64ZM579.60 64.11C580.29 64.11 580.84 63.56 580.84 62.87C580.84 62.18 580.29 61.63 579.60 61.63C578.91 61.63 578.36 62.18 578.36 62.87C578.36 63.56 578.91 64.11 579.60 64.11ZM579.60 71.58C580.29 71.58 580.84 71.02 580.84 70.34C580.84 69.65 580.29 69.09 579.60 69.09C578.91 69.09 578.36 69.65 578.36 70.34C578.36 71.02 578.91 71.58 579.60 71.58ZM579.60 79.04C580.29 79.04 580.84 78.48 580.84 77.80C580.84 77.11 580.29 76.56 579.60 76.56C578.91 76.56 578.36 77.11 578.36 77.80C578.36 78.48 578.91 79.04 579.60 79.04ZM572.12 11.85C572.81 11.85 573.37 11.30 573.37 10.61C573.37 9.93 572.81 9.37 572.12 9.37C571.44 9.37 570.88 9.93 570.88 10.61C570.88 11.30 571.44 11.85 572.12 11.85ZM572.12 41.72C572.81 41.72 573.37 41.16 573.37 40.48C573.37 39.79 572.81 39.23 572.12 39.23C571.44 39.23 570.88 39.79 570.88 40.48C570.88 41.16 571.44 41.72 572.12 41.72ZM572.12 49.18C572.81 49.18 573.37 48.62 573.37 47.94C573.37 47.25 572.81 46.70 572.12 46.70C571.44 46.70 570.88 47.25 570.88 47.94C570.88 48.62 571.44 49.18 572.12 49.18ZM572.12 56.64C572.81 56.64 573.37 56.09 573.37 55.40C573.37 54.72 572.81 54.16 572.12 54.16C571.44 54.16 570.88 54.72 570.88 55.40C570.88 56.09 571.44 56.64 572.12 56.64ZM572.12 64.11C572.81 64.11 573.37 63.56 573.37 62.87C573.37 62.18 572.81 61.63 572.12 61.63C571.44 61.63 570.88 62.18 570.88 62.87C570.88 63.56 571.44 64.11 572.12 64.11ZM572.12 71.58C572.81 71.58 573.37 71.02 573.37 70.34C573.37 69.65 572.81 69.09 572.12 69.09C571.44 69.09 570.88 69.65 570.88 70.34C570.88 71.02 571.44 71.58 572.12 71.58ZM572.12 79.04C572.81 79.04 573.37 78.48 573.37 77.80C573.37 77.11 572.81 76.56 572.12 76.56C571.44 76.56 570.88 77.11 570.88 77.80C570.88 78.48 571.44 79.04 572.12 79.04ZM564.65 11.85C565.34 11.85 565.89 11.30 565.89 10.61C565.89 9.93 565.34 9.37 564.65 9.37C563.96 9.37 563.41 9.93 563.41 10.61C563.41 11.30 563.96 11.85 564.65 11.85ZM564.65 19.32C565.34 19.32 565.89 18.76 565.89 18.08C565.89 17.39 565.34 16.83 564.65 16.83C563.96 16.83 563.41 17.39 563.41 18.08C563.41 18.76 563.96 19.32 564.65 19.32ZM564.65 41.72C565.34 41.72 565.89 41.16 565.89 40.48C565.89 39.79 565.34 39.23 564.65 39.23C563.96 39.23 563.41 39.79 563.41 40.48C563.41 41.16 563.96 41.72 564.65 41.72ZM564.65 49.18C565.34 49.18 565.89 48.62 565.89 47.94C565.89 47.25 565.34 46.70 564.65 46.70C563.96 46.70 563.41 47.25 563.41 47.94C563.41 48.62 563.96 49.18 564.65 49.18ZM564.65 56.64C565.34 56.64 565.89 56.09 565.89 55.40C565.89 54.72 565.34 54.16 564.65 54.16C563.96 54.16 563.41 54.72 563.41 55.40C563.41 56.09 563.96 56.64 564.65 56.64ZM564.65 64.11C565.34 64.11 565.89 63.56 565.89 62.87C565.89 62.18 565.34 61.63 564.65 61.63C563.96 61.63 563.41 62.18 563.41 62.87C563.41 63.56 563.96 64.11 564.65 64.11ZM564.65 71.58C565.34 71.58 565.89 71.02 565.89 70.34C565.89 69.65 565.34 69.09 564.65 69.09C563.96 69.09 563.41 69.65 563.41 70.34C563.41 71.02 563.96 71.58 564.65 71.58ZM564.65 79.04C565.34 79.04 565.89 78.48 565.89 77.80C565.89 77.11 565.34 76.56 564.65 76.56C563.96 76.56 563.41 77.11 563.41 77.80C563.41 78.48 563.96 79.04 564.65 79.04ZM557.18 11.85C557.86 11.85 558.42 11.30 558.42 10.61C558.42 9.93 557.86 9.37 557.18 9.37C556.49 9.37 555.93 9.93 555.93 10.61C555.93 11.30 556.49 11.85 557.18 11.85ZM557.18 19.32C557.86 19.32 558.42 18.76 558.42 18.08C558.42 17.39 557.86 16.83 557.18 16.83C556.49 16.83 555.93 17.39 555.93 18.08C555.93 18.76 556.49 19.32 557.18 19.32ZM557.18 26.79C557.86 26.79 558.42 26.23 558.42 25.54C558.42 24.86 557.86 24.30 557.18 24.30C556.49 24.30 555.93 24.86 555.93 25.54C555.93 26.23 556.49 26.79 557.18 26.79ZM557.18 41.72C557.86 41.72 558.42 41.16 558.42 40.48C558.42 39.79 557.86 39.23 557.18 39.23C556.49 39.23 555.93 39.79 555.93 40.48C555.93 41.16 556.49 41.72 557.18 41.72ZM557.18 49.18C557.86 49.18 558.42 48.62 558.42 47.94C558.42 47.25 557.86 46.70 557.18 46.70C556.49 46.70 555.93 47.25 555.93 47.94C555.93 48.62 556.49 49.18 557.18 49.18ZM557.18 56.64C557.86 56.64 558.42 56.09 558.42 55.40C558.42 54.72 557.86 54.16 557.18 54.16C556.49 54.16 555.93 54.72 555.93 55.40C555.93 56.09 556.49 56.64 557.18 56.64ZM557.18 64.11C557.86 64.11 558.42 63.56 558.42 62.87C558.42 62.18 557.86 61.63 557.18 61.63C556.49 61.63 555.93 62.18 555.93 62.87C555.93 63.56 556.49 64.11 557.18 64.11ZM557.18 71.58C557.86 71.58 558.42 71.02 558.42 70.34C558.42 69.65 557.86 69.09 557.18 69.09C556.49 69.09 555.93 69.65 555.93 70.34C555.93 71.02 556.49 71.58 557.18 71.58ZM557.18 79.04C557.86 79.04 558.42 78.48 558.42 77.80C558.42 77.11 557.86 76.56 557.18 76.56C556.49 76.56 555.93 77.11 555.93 77.80C555.93 78.48 556.49 79.04 557.18 79.04ZM624.44 13.17C625.85 13.17 627.00 12.02 627.00 10.62C627.00 9.21 625.85 8.06 624.44 8.06C623.03 8.06 621.88 9.21 621.88 10.62C621.88 12.02 623.03 13.17 624.44 13.17ZM624.44 15.52C623.02 15.52 621.88 16.67 621.88 18.08C621.88 19.49 623.03 20.64 624.44 20.64C625.85 20.64 627.00 19.49 627.00 18.08C627.00 16.67 625.85 15.52 624.44 15.52ZM624.44 22.98C623.02 22.98 621.88 24.13 621.88 25.54C621.88 26.95 623.03 28.10 624.44 28.10C625.85 28.10 627.00 26.95 627.00 25.54C627.00 24.13 625.85 22.98 624.44 22.98ZM624.44 30.45C623.02 30.45 621.88 31.60 621.88 33.00C621.88 34.41 623.03 35.56 624.44 35.56C625.85 35.56 627.00 34.41 627.00 33.00C627.00 31.60 625.85 30.45 624.44 30.45ZM624.44 37.91C623.02 37.91 621.88 39.06 621.88 40.47C621.88 41.88 623.03 43.03 624.44 43.03C625.85 43.03 627.00 41.88 627.00 40.47C627.00 39.06 625.85 37.91 624.44 37.91ZM624.44 45.38C623.02 45.38 621.88 46.53 621.88 47.94C621.88 49.35 623.03 50.50 624.44 50.50C625.85 50.50 627.00 49.35 627.00 47.94C627.00 46.53 625.85 45.38 624.44 45.38ZM624.44 52.85C623.02 52.85 621.88 54.00 621.88 55.40C621.88 56.81 623.03 57.96 624.44 57.96C625.85 57.96 627.00 56.81 627.00 55.40C627.00 54.00 625.85 52.85 624.44 52.85ZM616.97 8.05C615.55 8.05 614.40 9.20 614.40 10.61C614.40 12.02 615.56 13.17 616.97 13.17C618.38 13.17 619.53 12.02 619.53 10.61C619.53 9.20 618.38 8.05 616.97 8.05ZM616.97 15.74C615.68 15.74 614.63 16.79 614.63 18.08C614.63 19.37 615.68 20.42 616.97 20.42C618.26 20.42 619.31 19.37 619.31 18.08C619.31 16.79 618.26 15.74 616.97 15.74ZM616.97 23.20C615.68 23.20 614.63 24.25 614.63 25.54C614.63 26.83 615.68 27.88 616.97 27.88C618.26 27.88 619.31 26.83 619.31 25.54C619.31 24.25 618.26 23.20 616.97 23.20ZM616.97 30.67C615.68 30.67 614.63 31.71 614.63 33.01C614.63 34.30 615.68 35.34 616.97 35.34C618.26 35.34 619.31 34.30 619.31 33.01C619.31 31.71 618.26 30.67 616.97 30.67ZM616.97 38.13C615.68 38.13 614.63 39.18 614.63 40.47C614.63 41.76 615.68 42.81 616.97 42.81C618.26 42.81 619.31 41.76 619.31 40.47C619.31 39.18 618.26 38.13 616.97 38.13ZM616.97 45.60C615.68 45.60 614.63 46.65 614.63 47.94C614.63 49.23 615.68 50.28 616.97 50.28C618.26 50.28 619.31 49.23 619.31 47.94C619.31 46.65 618.26 45.60 616.97 45.60ZM616.97 53.06C615.68 53.06 614.63 54.11 614.63 55.40C614.63 56.69 615.68 57.74 616.97 57.74C618.26 57.74 619.31 56.69 619.31 55.40C619.31 54.11 618.26 53.06 616.97 53.06ZM616.97 60.52C615.68 60.52 614.63 61.57 614.63 62.86C614.63 64.15 615.68 65.20 616.97 65.20C618.26 65.20 619.31 64.15 619.31 62.86C619.31 61.57 618.26 60.52 616.97 60.52ZM609.49 8.05C608.08 8.05 606.93 9.20 606.93 10.61C606.93 12.02 608.08 13.17 609.49 13.17C610.90 13.17 612.05 12.02 612.05 10.61C612.05 9.20 610.90 8.05 609.49 8.05ZM609.49 15.74C608.20 15.74 607.15 16.79 607.15 18.08C607.15 19.37 608.20 20.42 609.49 20.42C610.79 20.42 611.84 19.37 611.84 18.08C611.84 16.79 610.79 15.74 609.49 15.74ZM609.49 23.42C608.32 23.42 607.37 24.38 607.37 25.54C607.37 26.71 608.32 27.66 609.49 27.66C610.66 27.66 611.61 26.71 611.61 25.54C611.61 24.38 610.66 23.42 609.49 23.42ZM609.49 30.89C608.32 30.89 607.37 31.84 607.37 33.01C607.37 34.17 608.32 35.13 609.49 35.13C610.66 35.13 611.61 34.17 611.61 33.01C611.61 31.84 610.66 30.89 609.49 30.89ZM609.49 38.35C608.32 38.35 607.37 39.30 607.37 40.47C607.37 41.64 608.32 42.59 609.49 42.59C610.66 42.59 611.61 41.64 611.61 40.47C611.61 39.30 610.66 38.35 609.49 38.35ZM609.49 50.06C610.66 50.06 611.61 49.11 611.61 47.94C611.61 46.77 610.66 45.82 609.49 45.82C608.32 45.82 607.37 46.77 607.37 47.94C607.37 49.11 608.32 50.06 609.49 50.06ZM609.49 57.52C610.66 57.52 611.61 56.58 611.61 55.40C611.61 54.23 610.66 53.28 609.49 53.28C608.32 53.28 607.37 54.23 607.37 55.40C607.37 56.58 608.32 57.52 609.49 57.52ZM609.49 64.99C610.66 64.99 611.61 64.04 611.61 62.87C611.61 61.70 610.66 60.75 609.49 60.75C608.32 60.75 607.37 61.70 607.37 62.87C607.37 64.04 608.32 64.99 609.49 64.99ZM609.49 72.46C610.66 72.46 611.61 71.51 611.61 70.34C611.61 69.16 610.66 68.22 609.49 68.22C608.32 68.22 607.37 69.16 607.37 70.34C607.37 71.51 608.32 72.46 609.49 72.46ZM602.02 8.05C600.60 8.05 599.46 9.20 599.46 10.61C599.46 12.02 600.61 13.17 602.02 13.17C603.43 13.17 604.58 12.02 604.58 10.61C604.58 9.20 603.43 8.05 602.02 8.05ZM602.02 15.74C600.73 15.74 599.68 16.79 599.68 18.08C599.68 19.37 600.73 20.42 602.02 20.42C603.31 20.42 604.36 19.37 604.36 18.08C604.36 16.79 603.31 15.74 602.02 15.74ZM602.02 23.42C600.85 23.42 599.90 24.38 599.90 25.54C599.90 26.71 600.85 27.66 602.02 27.66C603.19 27.66 604.14 26.71 604.14 25.54C604.14 24.38 603.19 23.42 602.02 23.42ZM602.02 31.10C600.97 31.10 600.11 31.96 600.11 33.01C600.11 34.05 600.97 34.91 602.02 34.91C603.07 34.91 603.92 34.05 603.92 33.01C603.92 31.96 603.07 31.10 602.02 31.10ZM602.02 38.57C600.97 38.57 600.11 39.42 600.11 40.47C600.11 41.52 600.97 42.37 602.02 42.37C603.07 42.37 603.92 41.52 603.92 40.47C603.92 39.42 603.07 38.57 602.02 38.57ZM602.02 49.84C603.07 49.84 603.92 48.99 603.92 47.94C603.92 46.89 603.07 46.04 602.02 46.04C600.97 46.04 600.11 46.89 600.11 47.94C600.11 48.99 600.97 49.84 602.02 49.84ZM602.02 57.30C603.07 57.30 603.92 56.45 603.92 55.40C603.92 54.35 603.07 53.50 602.02 53.50C600.97 53.50 600.11 54.35 600.11 55.40C600.11 56.45 600.97 57.30 602.02 57.30ZM602.02 64.77C603.07 64.77 603.92 63.92 603.92 62.87C603.92 61.82 603.07 60.97 602.02 60.97C600.97 60.97 600.11 61.82 600.11 62.87C600.11 63.92 600.97 64.77 602.02 64.77ZM602.02 72.24C603.07 72.24 603.92 71.39 603.92 70.34C603.92 69.29 603.07 68.44 602.02 68.44C600.97 68.44 600.11 69.29 600.11 70.34C600.11 71.39 600.97 72.24 602.02 72.24ZM602.02 75.90C600.97 75.90 600.11 76.75 600.11 77.80C600.11 78.85 600.97 79.70 602.02 79.70C603.07 79.70 603.92 78.85 603.92 77.80C603.92 76.75 603.07 75.90 602.02 75.90ZM594.54 8.05C593.13 8.05 591.98 9.20 591.98 10.61C591.98 12.02 593.13 13.17 594.54 13.17C595.95 13.17 597.11 12.02 597.11 10.61C597.11 9.20 595.95 8.05 594.54 8.05ZM594.54 15.74C593.25 15.74 592.20 16.79 592.20 18.08C592.20 19.37 593.25 20.42 594.54 20.42C595.83 20.42 596.88 19.37 596.88 18.08C596.88 16.79 595.83 15.74 594.54 15.74ZM594.54 23.42C593.37 23.42 592.42 24.38 592.42 25.54C592.42 26.71 593.38 27.66 594.54 27.66C595.71 27.66 596.67 26.71 596.67 25.54C596.67 24.38 595.71 23.42 594.54 23.42ZM594.54 31.10C593.49 31.10 592.64 31.96 592.64 33.01C592.64 34.05 593.49 34.91 594.54 34.91C595.59 34.91 596.45 34.05 596.45 33.01C596.45 31.96 595.59 31.10 594.54 31.10ZM594.54 38.57C593.49 38.57 592.64 39.42 592.64 40.47C592.64 41.52 593.49 42.37 594.54 42.37C595.59 42.37 596.45 41.52 596.45 40.47C596.45 39.42 595.59 38.57 594.54 38.57ZM587.07 8.05C585.66 8.05 584.51 9.20 584.51 10.61C584.51 12.02 585.66 13.17 587.07 13.17C588.49 13.17 589.64 12.02 589.64 10.61C589.64 9.20 588.49 8.05 587.07 8.05ZM587.07 15.74C585.78 15.74 584.73 16.79 584.73 18.08C584.73 19.37 585.78 20.42 587.07 20.42C588.37 20.42 589.42 19.37 589.42 18.08C589.42 16.79 588.37 15.74 587.07 15.74ZM587.07 23.42C585.90 23.42 584.95 24.38 584.95 25.54C584.95 26.71 585.90 27.66 587.07 27.66C588.24 27.66 589.19 26.71 589.19 25.54C589.19 24.38 588.24 23.42 587.07 23.42ZM587.07 31.10C586.02 31.10 585.17 31.96 585.17 33.01C585.17 34.05 586.02 34.91 587.07 34.91C588.12 34.91 588.97 34.05 588.97 33.01C588.97 31.96 588.12 31.10 587.07 31.10ZM579.60 8.05C578.19 8.05 577.04 9.20 577.04 10.61C577.04 12.02 578.19 13.17 579.60 13.17C581.01 13.17 582.16 12.02 582.16 10.61C582.16 9.20 581.01 8.05 579.60 8.05ZM579.60 15.74C578.31 15.74 577.26 16.79 577.26 18.08C577.26 19.37 578.31 20.42 579.60 20.42C580.89 20.42 581.94 19.37 581.94 18.08C581.94 16.79 580.89 15.74 579.60 15.74ZM579.60 23.42C578.42 23.42 577.48 24.38 577.48 25.54C577.48 26.71 578.43 27.66 579.60 27.66C580.77 27.66 581.72 26.71 581.72 25.54C581.72 24.38 580.77 23.42 579.60 23.42ZM579.60 31.10C578.55 31.10 577.70 31.96 577.70 33.01C577.70 34.05 578.55 34.91 579.60 34.91C580.65 34.91 581.50 34.05 581.50 33.01C581.50 31.96 580.65 31.10 579.60 31.10ZM572.12 15.74C570.83 15.74 569.78 16.79 569.78 18.08C569.78 19.37 570.83 20.42 572.12 20.42C573.42 20.42 574.47 19.37 574.47 18.08C574.47 16.79 573.42 15.74 572.12 15.74ZM572.12 23.42C570.95 23.42 570.00 24.38 570.00 25.54C570.00 26.71 570.95 27.66 572.12 27.66C573.29 27.66 574.25 26.71 574.25 25.54C574.25 24.38 573.29 23.42 572.12 23.42ZM572.13 31.10C571.08 31.10 570.22 31.96 570.22 33.01C570.22 34.05 571.08 34.91 572.13 34.91C573.18 34.91 574.03 34.05 574.03 33.01C574.03 31.96 573.18 31.10 572.13 31.10ZM564.65 23.42C563.48 23.42 562.53 24.38 562.53 25.54C562.53 26.71 563.48 27.66 564.65 27.66C565.82 27.66 566.77 26.71 566.77 25.54C566.77 24.38 565.82 23.42 564.65 23.42ZM564.65 31.10C563.60 31.10 562.75 31.96 562.75 33.01C562.75 34.05 563.60 34.91 564.65 34.91C565.70 34.91 566.55 34.05 566.55 33.01C566.55 31.96 565.70 31.10 564.65 31.10ZM557.17 31.10C556.12 31.10 555.27 31.96 555.27 33.01C555.27 34.05 556.12 34.91 557.17 34.91C558.22 34.91 559.08 34.05 559.08 33.01C559.08 31.96 558.22 31.10 557.17 31.10ZM62.99 79.75C65.10 79.75 66.82 81.48 66.82 83.62L66.82 92.66L20.91 92.66L20.91 83.62C20.91 81.48 22.62 79.75 24.73 79.75L62.99 79.75ZM79.73 92.66L66.82 92.66L66.82 105.58L79.73 105.58L79.73 92.66ZM79.73 132.86L79.73 138.58L66.92 138.58L66.92 134.12C66.92 131.01 64.79 128.25 61.63 127.28L20.81 114.68C13.17 112.31 8.00 105.63 8.00 98.09L8.00 92.66L20.81 92.66L20.81 96.83C20.81 99.94 22.93 102.69 26.08 103.67L66.92 116.27C74.56 118.64 79.73 125.33 79.73 132.87L79.73 132.86ZM20.91 138.58L66.82 138.58L66.82 148.91C66.82 150.34 65.67 151.50 64.27 151.50L23.46 151.50C22.05 151.50 20.91 150.34 20.91 148.91L20.91 138.58ZM20.91 125.67L8.00 125.67L8.00 138.58L20.91 138.58L20.91 125.67ZM99.09 83.49L99.09 151.50L86.18 151.50L86.18 83.49C86.18 81.42 87.92 79.75 90.05 79.75L95.22 79.75C97.36 79.75 99.09 81.42 99.09 83.49ZM118.46 79.75L105.55 79.75L105.55 138.58L118.46 138.58L118.46 79.75ZM118.46 138.58L164.36 138.58L164.36 148.92C164.36 150.34 163.22 151.50 161.81 151.50L121.01 151.50C119.60 151.50 118.46 150.34 118.46 148.92L118.46 138.58ZM216.72 105.58L216.72 118.49L183.73 118.49L183.73 109.45C183.73 107.31 185.45 105.58 187.56 105.58L216.72 105.58ZM229.64 92.66L216.72 92.66L216.72 105.58L229.64 105.58L229.64 92.66ZM242.55 79.75L229.63 79.75L229.64 92.66L242.55 92.66L242.55 79.75ZM242.55 131.41L229.63 131.41L229.63 151.50L242.55 151.50L242.55 131.41ZM229.64 118.49L216.72 118.49L216.72 131.41L229.64 131.41L229.64 118.49ZM183.73 79.75L170.82 79.75L170.82 151.50L183.73 151.50L183.73 79.75ZM304.23 79.75C306.21 79.75 307.82 81.35 307.82 83.34L307.82 92.66L261.91 92.66L261.91 79.75L304.23 79.75ZM320.73 92.66L307.82 92.66L307.82 105.58L320.73 105.58L320.73 92.66ZM320.73 118.13L307.82 118.13L307.82 151.50L320.73 151.50L320.73 118.13ZM261.91 79.75L249.00 79.75L249.00 151.50L261.91 151.50L261.91 79.75ZM307.82 118.49L261.91 118.49L261.91 105.58L307.82 105.58L307.82 118.49ZM398.91 92.66L386.00 92.66L386.00 138.59L398.91 138.59L398.91 92.66ZM382.17 79.75C384.28 79.75 386.00 81.49 386.00 83.62L386.00 92.66L340.09 92.66L340.09 83.62C340.09 81.49 341.81 79.75 343.92 79.75L382.17 79.75ZM340.09 138.59L386.00 138.59L386.00 148.92C386.00 150.34 384.85 151.50 383.45 151.50L342.64 151.50C341.24 151.50 340.09 150.34 340.09 148.92L340.09 138.59ZM340.09 92.66L327.18 92.66L327.18 138.59L340.09 138.59L340.09 92.66ZM460.33 79.75C462.46 79.75 464.18 81.48 464.18 83.62L464.18 92.66L418.28 92.66L418.28 83.62C418.28 81.48 420.00 79.75 422.13 79.75L460.33 79.75ZM460.33 118.49C462.46 118.49 464.18 116.76 464.18 114.62L464.18 105.58L418.28 105.58L418.28 114.62C418.28 116.76 420.00 118.49 422.13 118.49L460.33 118.49ZM477.09 92.66L464.18 92.66L464.18 151.50L477.09 151.50L477.09 92.66ZM418.28 92.66L405.37 92.66L405.37 151.50L418.28 151.50L418.28 92.66ZM542.36 92.66L551.40 92.66C553.54 92.66 555.27 94.38 555.27 96.49L555.27 134.76C555.27 136.87 553.54 138.58 551.40 138.58L542.36 138.58L542.36 92.66ZM538.78 79.75C540.76 79.75 542.36 81.35 542.36 83.34L542.36 92.66L496.46 92.66L496.46 79.75L538.78 79.75ZM496.46 138.58L542.36 138.58L542.36 147.91C542.36 149.89 540.76 151.50 538.78 151.50L496.46 151.50L496.46 138.58ZM496.46 79.75L483.55 79.75L483.55 151.50L496.46 151.50L496.46 79.75Z"/>
<path fill="currentColor" fill-rule="evenodd" d="M514.61 213.39L520.87 212.11C521.40 215.59 522.92 218.29 525.44 220.21C528.00 222.08 531.37 223.02 535.54 223.02C539.50 223.02 542.71 222.11 545.17 220.29C547.63 218.47 548.86 216.15 548.86 213.31C548.86 211.23 548.24 209.46 547.01 208.02C545.84 206.57 544.29 205.45 542.36 204.65C540.44 203.84 538.30 203.15 535.94 202.56C533.64 201.92 531.32 201.22 528.97 200.48C526.61 199.67 524.47 198.74 522.55 197.67C520.62 196.60 519.05 195.07 517.82 193.09C516.64 191.11 516.05 188.73 516.05 185.95C516.05 181.62 517.82 178.04 521.35 175.20C524.93 172.31 529.42 170.87 534.82 170.87C540.22 170.87 544.69 172.29 548.22 175.12C551.80 177.96 553.94 181.62 554.63 186.11L548.30 187.40C547.81 184.13 546.34 181.49 543.88 179.45C541.48 177.42 538.43 176.41 534.74 176.41C531.16 176.41 528.22 177.29 525.92 179.05C523.62 180.82 522.47 183.04 522.47 185.71C522.47 187.75 523.06 189.46 524.23 190.85C525.46 192.18 527.04 193.23 528.97 193.98C530.89 194.67 533.03 195.34 535.38 195.98C537.74 196.57 540.06 197.27 542.36 198.07C544.71 198.82 546.85 199.75 548.78 200.88C550.70 202.00 552.25 203.60 553.43 205.69C554.66 207.72 555.27 210.21 555.27 213.15C555.27 217.64 553.38 221.36 549.58 224.30C545.78 227.19 541.05 228.64 535.38 228.64C529.66 228.64 524.93 227.27 521.19 224.54C517.44 221.82 515.25 218.10 514.61 213.39ZM463.17 227.83L428.60 227.83L428.60 171.67L434.86 171.67L434.86 222.14L463.17 222.14L463.17 227.83ZM371.58 227.83L337.01 227.83L337.01 171.67L371.58 171.67L371.58 177.37L343.26 177.37L343.26 196.94L370.77 196.94L370.77 202.56L343.26 202.56L343.26 222.14L371.58 222.14L371.58 227.83ZM246.66 197.51L279.38 197.51C279.81 203.39 278.74 208.74 276.17 213.55C273.66 218.37 270.16 222.08 265.67 224.71C261.23 227.33 256.36 228.64 251.07 228.64C242.83 228.64 235.91 225.85 230.29 220.29C224.73 214.73 221.95 207.88 221.95 199.75C221.95 191.62 224.73 184.78 230.29 179.21C235.91 173.65 242.83 170.87 251.07 170.87C257.00 170.87 262.24 172.42 266.79 175.52C271.33 178.57 274.65 182.42 276.73 187.08L271.04 189.48C269.27 185.69 266.60 182.61 263.02 180.26C259.49 177.85 255.51 176.65 251.07 176.65C244.70 176.65 239.33 178.89 234.95 183.39C230.56 187.83 228.37 193.28 228.37 199.75C228.37 206.22 230.56 211.71 234.95 216.20C239.33 220.64 244.70 222.86 251.07 222.86C257.00 222.86 261.98 220.96 265.99 217.16C270.00 213.31 272.22 208.66 272.64 203.20L246.66 203.20L246.66 197.51ZM158.93 226.55L158.93 171.67L165.19 171.67L165.19 227.83L152.92 227.83L124.04 173.04L124.04 227.83L117.78 227.83L117.78 171.67L130.06 171.67L158.93 226.55ZM63.42 227.83L56.69 227.83L50.83 212.91L20.35 212.91L14.50 227.83L8.00 227.83L30.22 171.67L41.21 171.67L63.42 227.83M35.59 173.76L22.52 207.21L48.67 207.21L35.59 173.76Z"/>
</svg>