<svg xmlns="http://www.w3.org/2000/svg" viewBox="-40 -40 560 560"><rect x="-40" y="-40" width="560" height="560" rx="96" fill="#00203F"/><circle cx="24" cy="24" r="7.968" fill="#00F7EB" opacity="0.6"/><circle cx="72" cy="24" r="7.968" fill="#00F7EB" opacity="0.6"/><circle cx="120" cy="24" r="7.968" fill="#00F7EB" opacity="0.6"/><circle cx="168" cy="24" r="16.416" fill="#00F7EB" opacity="1"/><circle cx="216" cy="24" r="16.416" fill="#00F7EB" opacity="1"/><circle cx="264" cy="24" r="16.416" fill="#00F7EB" opacity="1"/><circle cx="312" cy="24" r="16.416" fill="#00F7EB" opacity="1"/><circle cx="360" cy="24" r="16.416" fill="#00F7EB" opacity="1"/><circle cx="408" cy="24" r="16.416" fill="#00F7EB" opacity="1"/><circle cx="456" cy="24" r="16.416" fill="#00F7EB" opacity="1"/><circle cx="24" cy="72" r="7.968" fill="#00F7EB" opacity="0.6"/><circle cx="72" cy="72" r="7.968" fill="#00F7EB" opacity="0.6"/><circle cx="120" cy="72" r="15.024" fill="#00F7EB" opacity="1"/><circle cx="168" cy="72" r="15.024" fill="#00F7EB" opacity="1"/><circle cx="216" cy="72" r="15.024" fill="#00F7EB" opacity="1"/><circle cx="264" cy="72" r="15.024" fill="#00F7EB" opacity="1"/><circle cx="312" cy="72" r="15.024" fill="#00F7EB" opacity="1"/><circle cx="360" cy="72" r="15.024" fill="#00F7EB" opacity="1"/><circle cx="408" cy="72" r="15.024" fill="#00F7EB" opacity="1"/><circle cx="456" cy="72" r="16.416" fill="#00F7EB" opacity="1"/><circle cx="24" cy="120" r="7.968" fill="#00F7EB" opacity="0.6"/><circle cx="72" cy="120" r="13.632" fill="#00F7EB" opacity="0.9"/><circle cx="120" cy="120" r="13.632" fill="#00F7EB" opacity="0.9"/><circle cx="168" cy="120" r="13.632" fill="#00F7EB" opacity="0.9"/><circle cx="216" cy="120" r="13.632" fill="#00F7EB" opacity="0.9"/><circle cx="264" cy="120" r="13.632" fill="#00F7EB" opacity="0.9"/><circle cx="312" cy="120" r="13.632" fill="#00F7EB" opacity="0.9"/><circle cx="360" cy="120" r="13.632" fill="#00F7EB" opacity="0.9"/><circle cx="408" cy="120" r="15.024" fill="#00F7EB" opacity="1"/><circle cx="456" cy="120" r="16.416" fill="#00F7EB" opacity="1"/><circle cx="24" cy="168" r="12.192" fill="#00F7EB" opacity="0.8"/><circle cx="72" cy="168" r="12.192" fill="#00F7EB" opacity="0.8"/><circle cx="120" cy="168" r="12.192" fill="#00F7EB" opacity="0.8"/><circle cx="168" cy="168" r="12.192" fill="#00F7EB" opacity="0.8"/><circle cx="216" cy="168" r="12.192" fill="#00F7EB" opacity="0.8"/><circle cx="264" cy="168" r="12.192" fill="#00F7EB" opacity="0.8"/><circle cx="312" cy="168" r="12.192" fill="#00F7EB" opacity="0.8"/><circle cx="360" cy="168" r="13.632" fill="#00F7EB" opacity="0.9"/><circle cx="408" cy="168" r="15.024" fill="#00F7EB" opacity="1"/><circle cx="456" cy="168" r="16.416" fill="#00F7EB" opacity="1"/><circle cx="24" cy="216" r="7.968" fill="#00F7EB" opacity="0.6"/><circle cx="72" cy="216" r="7.968" fill="#00F7EB" opacity="0.6"/><circle cx="120" cy="216" r="7.968" fill="#00F7EB" opacity="0.6"/><circle cx="168" cy="216" r="7.968" fill="#00F7EB" opacity="0.6"/><circle cx="216" cy="216" r="7.968" fill="#00F7EB" opacity="0.6"/><circle cx="264" cy="216" r="12.192" fill="#00F7EB" opacity="0.7"/><circle cx="312" cy="216" r="12.192" fill="#00F7EB" opacity="0.8"/><circle cx="360" cy="216" r="13.632" fill="#00F7EB" opacity="0.9"/><circle cx="408" cy="216" r="15.024" fill="#00F7EB" opacity="1"/><circle cx="456" cy="216" r="16.416" fill="#00F7EB" opacity="1"/><circle cx="24" cy="264" r="7.968" fill="#00F7EB" opacity="0.6"/><circle cx="72" cy="264" r="7.968" fill="#00F7EB" opacity="0.6"/><circle cx="120" cy="264" r="7.968" fill="#00F7EB" opacity="0.6"/><circle cx="168" cy="264" r="7.968" fill="#00F7EB" opacity="0.6"/><circle cx="216" cy="264" r="7.968" fill="#00F7EB" opacity="0.6"/><circle cx="264" cy="264" r="7.968" fill="#00F7EB" opacity="0.6"/><circle cx="312" cy="264" r="12.192" fill="#00F7EB" opacity="0.8"/><circle cx="360" cy="264" r="13.632" fill="#00F7EB" opacity="0.9"/><circle cx="408" cy="264" r="15.024" fill="#00F7EB" opacity="1"/><circle cx="456" cy="264" r="16.416" fill="#00F7EB" opacity="1"/><circle cx="24" cy="312" r="7.968" fill="#00F7EB" opacity="0.6"/><circle cx="72" cy="312" r="7.968" fill="#00F7EB" opacity="0.6"/><circle cx="120" cy="312" r="7.968" fill="#00F7EB" opacity="0.6"/><circle cx="168" cy="312" r="7.968" fill="#00F7EB" opacity="0.6"/><circle cx="216" cy="312" r="7.968" fill="#00F7EB" opacity="0.6"/><circle cx="264" cy="312" r="7.968" fill="#00F7EB" opacity="0.6"/><circle cx="312" cy="312" r="12.192" fill="#00F7EB" opacity="0.8"/><circle cx="360" cy="312" r="13.632" fill="#00F7EB" opacity="0.9"/><circle cx="408" cy="312" r="15.024" fill="#00F7EB" opacity="1"/><circle cx="456" cy="312" r="16.416" fill="#00F7EB" opacity="1"/><circle cx="24" cy="360" r="7.968" fill="#00F7EB" opacity="0.6"/><circle cx="72" cy="360" r="7.968" fill="#00F7EB" opacity="0.6"/><circle cx="120" cy="360" r="7.968" fill="#00F7EB" opacity="0.6"/><circle cx="168" cy="360" r="7.968" fill="#00F7EB" opacity="0.6"/><circle cx="216" cy="360" r="7.968" fill="#00F7EB" opacity="0.6"/><circle cx="264" cy="360" r="7.968" fill="#00F7EB" opacity="0.6"/><circle cx="312" cy="360" r="12.192" fill="#00F7EB" opacity="0.8"/><circle cx="360" cy="360" r="13.632" fill="#00F7EB" opacity="0.9"/><circle cx="408" cy="360" r="15.024" fill="#00F7EB" opacity="1"/><circle cx="456" cy="360" r="7.968" fill="#00F7EB" opacity="0.6"/><circle cx="24" cy="408" r="7.968" fill="#00F7EB" opacity="0.6"/><circle cx="72" cy="408" r="7.968" fill="#00F7EB" opacity="0.6"/><circle cx="120" cy="408" r="7.968" fill="#00F7EB" opacity="0.6"/><circle cx="168" cy="408" r="7.968" fill="#00F7EB" opacity="0.6"/><circle cx="216" cy="408" r="7.968" fill="#00F7EB" opacity="0.6"/><circle cx="264" cy="408" r="7.968" fill="#00F7EB" opacity="0.6"/><circle cx="312" cy="408" r="12.192" fill="#00F7EB" opacity="0.8"/><circle cx="360" cy="408" r="13.632" fill="#00F7EB" opacity="0.9"/><circle cx="408" cy="408" r="7.968" fill="#00F7EB" opacity="0.6"/><circle cx="456" cy="408" r="7.968" fill="#00F7EB" opacity="0.6"/><circle cx="24" cy="456" r="7.968" fill="#00F7EB" opacity="0.6"/><circle cx="72" cy="456" r="7.968" fill="#00F7EB" opacity="0.6"/><circle cx="120" cy="456" r="7.968" fill="#00F7EB" opacity="0.6"/><circle cx="168" cy="456" r="7.968" fill="#00F7EB" opacity="0.6"/><circle cx="216" cy="456" r="7.968" fill="#00F7EB" opacity="0.6"/><circle cx="264" cy="456" r="7.968" fill="#00F7EB" opacity="0.6"/><circle cx="312" cy="456" r="12.192" fill="#00F7EB" opacity="0.8"/><circle cx="360" cy="456" r="7.968" fill="#00F7EB" opacity="0.6"/><circle cx="408" cy="456" r="7.968" fill="#00F7EB" opacity="0.6"/><circle cx="456" cy="456" r="7.968" fill="#00F7EB" opacity="0.6"/></svg>